<svg id="Capa_1" data-name="Capa 1" xmlns="http://www.w3.org/2000/svg" viewBox="0 0 500 500"><defs><style>.cls-1{fill:#5587ff;}.cls-2{fill:#83a7ff;}</style></defs><title>Mesa de trabajo 1 copia-123</title><rect class="cls-1" x="-35.79" y="-38.77" width="553.88" height="598.22"/><rect class="cls-2" x="46.51" y="426.97" width="41.17" height="6.94"/><rect class="cls-2" x="92.12" y="415.74" width="41.17" height="6.94"/><rect class="cls-2" x="129.95" y="435.72" width="41.17" height="6.94"/><rect class="cls-2" x="21.04" y="348.52" width="41.17" height="6.94"/><rect class="cls-2" x="257.21" y="353.35" width="41.17" height="6.94"/><rect class="cls-2" x="392.1" y="385.87" width="41.17" height="6.94"/><rect class="cls-2" x="365.59" y="449.12" width="41.17" height="6.94"/><rect class="cls-2" x="41.63" y="234.27" width="41.17" height="6.94"/><rect class="cls-2" x="74.85" y="278.57" width="41.17" height="4.88"/><rect class="cls-2" x="109.36" y="267.19" width="41.17" height="6.94"/><rect class="cls-2" x="150.54" y="199.08" width="41.17" height="6.94"/><rect class="cls-2" x="208.83" y="278.57" width="41.17" height="6.94"/><rect class="cls-2" x="277.8" y="230.8" width="41.17" height="3.47"/><rect class="cls-2" x="397.74" y="277.54" width="41.17" height="6.94"/><rect class="cls-2" x="318.97" y="171.68" width="69.88" height="4.5"/><rect class="cls-2" x="38.45" y="79.84" width="67.21" height="4.09"/><rect class="cls-2" x="121.79" y="100.67" width="41.17" height="6.94"/><rect class="cls-2" x="147.96" y="58.09" width="69.88" height="4.5"/><rect class="cls-2" x="293.36" y="87.89" width="41.17" height="6.94"/><rect class="cls-2" x="386.17" y="40.97" width="41.17" height="6.94"/><rect class="cls-2" x="371.82" y="110.6" width="69.88" height="4.5"/><rect class="cls-2" x="208.83" y="440.42" width="69.88" height="4.5"/><rect class="cls-2" x="293.36" y="397.36" width="41.17" height="3.47"/></svg>